<svg viewBox="0 0 1400 1000" xmlns="http://www.w3.org/2000/svg">
  <!-- Definiciones -->
  <defs>
    <marker id="arrowhead" markerWidth="10" markerHeight="10" refX="9" refY="3" orient="auto">
      <polygon points="0 0, 10 3, 0 6" fill="#333" />
    </marker>
  </defs>
  
  <!-- Título -->
  <text x="700" y="30" font-size="20" font-weight="bold" text-anchor="middle" fill="#2c3e50">
    Diagrama de Casos de Uso - DIFLEX 3.0 Punto de Ventas
  </text>
  
  <!-- Sistema -->
  <rect x="250" y="60" width="900" height="900" fill="none" stroke="#34495e" stroke-width="2" rx="10"/>
  <text x="700" y="85" font-size="14" font-weight="bold" text-anchor="middle" fill="#34495e">
    Sistema DIFLEX 3.0 - Punto de Ventas
  </text>
  
  <!-- Actores -->
  <!-- Representante de Ventas -->
  <circle cx="150" cy="200" r="20" fill="none" stroke="#e74c3c" stroke-width="2"/>
  <line x1="150" y1="220" x2="150" y2="270" stroke="#e74c3c" stroke-width="2"/>
  <line x1="150" y1="240" x2="120" y2="260" stroke="#e74c3c" stroke-width="2"/>
  <line x1="150" y1="240" x2="180" y2="260" stroke="#e74c3c" stroke-width="2"/>
  <line x1="150" y1="270" x2="120" y2="300" stroke="#e74c3c" stroke-width="2"/>
  <line x1="150" y1="270" x2="180" y2="300" stroke="#e74c3c" stroke-width="2"/>
  <text x="150" y="320" font-size="12" font-weight="bold" text-anchor="middle" fill="#e74c3c">Representante</text>
  <text x="150" y="335" font-size="12" font-weight="bold" text-anchor="middle" fill="#e74c3c">de Ventas</text>
  
  <!-- Representante de Servicio -->
  <circle cx="150" cy="450" r="20" fill="none" stroke="#3498db" stroke-width="2"/>
  <line x1="150" y1="470" x2="150" y2="520" stroke="#3498db" stroke-width="2"/>
  <line x1="150" y1="490" x2="120" y2="510" stroke="#3498db" stroke-width="2"/>
  <line x1="150" y1="490" x2="180" y2="510" stroke="#3498db" stroke-width="2"/>
  <line x1="150" y1="520" x2="120" y2="550" stroke="#3498db" stroke-width="2"/>
  <line x1="150" y1="520" x2="180" y2="550" stroke="#3498db" stroke-width="2"/>
  <text x="150" y="570" font-size="12" font-weight="bold" text-anchor="middle" fill="#3498db">Representante</text>
  <text x="150" y="585" font-size="12" font-weight="bold" text-anchor="middle" fill="#3498db">de Servicio</text>
  
  <!-- Oficial de Crédito -->
  <circle cx="1250" cy="300" r="20" fill="none" stroke="#9b59b6" stroke-width="2"/>
  <line x1="1250" y1="320" x2="1250" y2="370" stroke="#9b59b6" stroke-width="2"/>
  <line x1="1250" y1="340" x2="1220" y2="360" stroke="#9b59b6" stroke-width="2"/>
  <line x1="1250" y1="340" x2="1280" y2="360" stroke="#9b59b6" stroke-width="2"/>
  <line x1="1250" y1="370" x2="1220" y2="400" stroke="#9b59b6" stroke-width="2"/>
  <line x1="1250" y1="370" x2="1280" y2="400" stroke="#9b59b6" stroke-width="2"/>
  <text x="1250" y="420" font-size="12" font-weight="bold" text-anchor="middle" fill="#9b59b6">Oficial de</text>
  <text x="1250" y="435" font-size="12" font-weight="bold" text-anchor="middle" fill="#9b59b6">Crédito y Cobro</text>
  
  <!-- Despachador -->
  <circle cx="1250" cy="550" r="20" fill="none" stroke="#16a085" stroke-width="2"/>
  <line x1="1250" y1="570" x2="1250" y2="620" stroke="#16a085" stroke-width="2"/>
  <line x1="1250" y1="590" x2="1220" y2="610" stroke="#16a085" stroke-width="2"/>
  <line x1="1250" y1="590" x2="1280" y2="610" stroke="#16a085" stroke-width="2"/>
  <line x1="1250" y1="620" x2="1220" y2="650" stroke="#16a085" stroke-width="2"/>
  <line x1="1250" y1="620" x2="1280" y2="650" stroke="#16a085" stroke-width="2"/>
  <text x="1250" y="670" font-size="12" font-weight="bold" text-anchor="middle" fill="#16a085">Despachador</text>
  
  <!-- Oficial de Inspección -->
  <circle cx="1250" cy="800" r="20" fill="none" stroke="#d35400" stroke-width="2"/>
  <line x1="1250" y1="820" x2="1250" y2="870" stroke="#d35400" stroke-width="2"/>
  <line x1="1250" y1="840" x2="1220" y2="860" stroke="#d35400" stroke-width="2"/>
  <line x1="1250" y1="840" x2="1280" y2="860" stroke="#d35400" stroke-width="2"/>
  <line x1="1250" y1="870" x2="1220" y2="900" stroke="#d35400" stroke-width="2"/>
  <line x1="1250" y1="870" x2="1280" y2="900" stroke="#d35400" stroke-width="2"/>
  <text x="1250" y="920" font-size="12" font-weight="bold" text-anchor="middle" fill="#d35400">Oficial de</text>
  <text x="1250" y="935" font-size="12" font-weight="bold" text-anchor="middle" fill="#d35400">Inspección</text>
  
  <!-- Casos de Uso - Módulo Punto de Ventas -->
  <ellipse cx="450" cy="150" rx="90" ry="35" fill="#ecf0f1" stroke="#e74c3c" stroke-width="2"/>
  <text x="450" y="155" font-size="11" text-anchor="middle" fill="#2c3e50">Consultar Clientes</text>
  
  <ellipse cx="450" cy="220" rx="90" ry="35" fill="#ecf0f1" stroke="#e74c3c" stroke-width="2"/>
  <text x="450" y="220" font-size="11" text-anchor="middle" fill="#2c3e50">Crear</text>
  <text x="450" y="233" font-size="11" text-anchor="middle" fill="#2c3e50">Cotización</text>
  
  <ellipse cx="450" cy="290" rx="90" ry="35" fill="#ecf0f1" stroke="#e74c3c" stroke-width="2"/>
  <text x="450" y="290" font-size="11" text-anchor="middle" fill="#2c3e50">Gestionar</text>
  <text x="450" y="303" font-size="11" text-anchor="middle" fill="#2c3e50">Cambios</text>
  
  <ellipse cx="450" cy="360" rx="90" ry="35" fill="#ecf0f1" stroke="#e74c3c" stroke-width="2"/>
  <text x="450" y="365" font-size="11" text-anchor="middle" fill="#2c3e50">Crear Pedido</text>
  
  <ellipse cx="450" cy="430" rx="90" ry="35" fill="#ecf0f1" stroke="#e74c3c" stroke-width="2"/>
  <text x="450" y="430" font-size="11" text-anchor="middle" fill="#2c3e50">Verificar Límite</text>
  <text x="450" y="443" font-size="11" text-anchor="middle" fill="#2c3e50">de Crédito</text>
  
  <ellipse cx="650" cy="150" rx="90" ry="35" fill="#ecf0f1" stroke="#e74c3c" stroke-width="2"/>
  <text x="650" y="155" font-size="11" text-anchor="middle" fill="#2c3e50">Registrar Cobro</text>
  
  <ellipse cx="650" cy="220" rx="90" ry="35" fill="#ecf0f1" stroke="#e74c3c" stroke-width="2"/>
  <text x="650" y="220" font-size="11" text-anchor="middle" fill="#2c3e50">Gestionar</text>
  <text x="650" y="233" font-size="11" text-anchor="middle" fill="#2c3e50">Devoluciones</text>
  
  <ellipse cx="650" cy="290" rx="90" ry="35" fill="#ecf0f1" stroke="#e74c3c" stroke-width="2"/>
  <text x="650" y="290" font-size="11" text-anchor="middle" fill="#2c3e50">Registrar</text>
  <text x="650" y="303" font-size="11" text-anchor="middle" fill="#2c3e50">Depósitos</text>
  
  <!-- Casos de Uso - Módulo Aplicación de Cobros -->
  <ellipse cx="900" cy="280" rx="90" ry="35" fill="#ecf0f1" stroke="#9b59b6" stroke-width="2"/>
  <text x="900" y="280" font-size="11" text-anchor="middle" fill="#2c3e50">Consultar</text>
  <text x="900" y="293" font-size="11" text-anchor="middle" fill="#2c3e50">Cobros Pendientes</text>
  
  <ellipse cx="900" cy="350" rx="90" ry="35" fill="#ecf0f1" stroke="#9b59b6" stroke-width="2"/>
  <text x="900" y="350" font-size="11" text-anchor="middle" fill="#2c3e50">Validar Cobro</text>
  <text x="900" y="363" font-size="11" text-anchor="middle" fill="#2c3e50">(Internet Banking)</text>
  
  <ellipse cx="900" cy="420" rx="90" ry="35" fill="#ecf0f1" stroke="#9b59b6" stroke-width="2"/>
  <text x="900" y="425" font-size="11" text-anchor="middle" fill="#2c3e50">Aplicar Cobro</text>
  
  <!-- Casos de Uso - Módulo Picking -->
  <ellipse cx="600" cy="550" rx="90" ry="35" fill="#ecf0f1" stroke="#16a085" stroke-width="2"/>
  <text x="600" y="550" font-size="11" text-anchor="middle" fill="#2c3e50">Consultar</text>
  <text x="600" y="563" font-size="11" text-anchor="middle" fill="#2c3e50">Pedidos</text>
  
  <ellipse cx="600" cy="620" rx="90" ry="35" fill="#ecf0f1" stroke="#16a085" stroke-width="2"/>
  <text x="600" y="620" font-size="11" text-anchor="middle" fill="#2c3e50">Seleccionar</text>
  <text x="600" y="633" font-size="11" text-anchor="middle" fill="#2c3e50">Pedido</text>
  
  <ellipse cx="600" cy="690" rx="90" ry="35" fill="#ecf0f1" stroke="#16a085" stroke-width="2"/>
  <text x="600" y="690" font-size="11" text-anchor="middle" fill="#2c3e50">Escanear</text>
  <text x="600" y="703" font-size="11" text-anchor="middle" fill="#2c3e50">Productos</text>
  
  <ellipse cx="850" cy="550" rx="90" ry="35" fill="#ecf0f1" stroke="#16a085" stroke-width="2"/>
  <text x="850" y="550" font-size="11" text-anchor="middle" fill="#2c3e50">Medir Tiempo</text>
  <text x="850" y="563" font-size="11" text-anchor="middle" fill="#2c3e50">de Picking</text>
  
  <ellipse cx="850" cy="620" rx="90" ry="35" fill="#ecf0f1" stroke="#16a085" stroke-width="2"/>
  <text x="850" y="625" font-size="11" text-anchor="middle" fill="#2c3e50">Completar Pedido</text>
  
  <!-- Casos de Uso - Módulo Inspección -->
  <ellipse cx="600" cy="800" rx="90" ry="35" fill="#ecf0f1" stroke="#d35400" stroke-width="2"/>
  <text x="600" y="800" font-size="11" text-anchor="middle" fill="#2c3e50">Consultar Pedidos</text>
  <text x="600" y="813" font-size="11" text-anchor="middle" fill="#2c3e50">en Inspección</text>
  
  <ellipse cx="600" cy="870" rx="90" ry="35" fill="#ecf0f1" stroke="#d35400" stroke-width="2"/>
  <text x="600" y="875" font-size="11" text-anchor="middle" fill="#2c3e50">Inspeccionar Pedido</text>
  
  <ellipse cx="850" cy="800" rx="90" ry="35" fill="#ecf0f1" stroke="#d35400" stroke-width="2"/>
  <text x="850" y="800" font-size="11" text-anchor="middle" fill="#2c3e50">Medir Tiempo</text>
  <text x="850" y="813" font-size="11" text-anchor="middle" fill="#2c3e50">de Inspección</text>
  
  <ellipse cx="850" cy="870" rx="90" ry="35" fill="#ecf0f1" stroke="#d35400" stroke-width="2"/>
  <text x="850" y="870" font-size="11" text-anchor="middle" fill="#2c3e50">Generar</text>
  <text x="850" y="883" font-size="11" text-anchor="middle" fill="#2c3e50">Factura</text>
  
  <!-- Relaciones Rep Ventas -->
  <line x1="180" y1="250" x2="360" y2="150" stroke="#333" stroke-width="1.5"/>
  <line x1="180" y1="260" x2="360" y2="220" stroke="#333" stroke-width="1.5"/>
  <line x1="180" y1="270" x2="360" y2="290" stroke="#333" stroke-width="1.5"/>
  <line x1="180" y1="280" x2="360" y2="360" stroke="#333" stroke-width="1.5"/>
  <line x1="180" y1="290" x2="360" y2="430" stroke="#333" stroke-width="1.5"/>
  <line x1="180" y1="260" x2="560" y2="150" stroke="#333" stroke-width="1.5"/>
  <line x1="180" y1="270" x2="560" y2="220" stroke="#333" stroke-width="1.5"/>
  <line x1="180" y1="280" x2="560" y2="290" stroke="#333" stroke-width="1.5"/>
  
  <!-- Rep Servicio -->
  <line x1="180" y1="480" x2="360" y2="430" stroke="#333" stroke-width="1.5" stroke-dasharray="5,5"/>
  
  <!-- Oficial de Crédito -->
  <line x1="1220" y1="340" x2="990" y2="280" stroke="#333" stroke-width="1.5"/>
  <line x1="1220" y1="350" x2="990" y2="350" stroke="#333" stroke-width="1.5"/>
  <line x1="1220" y1="360" x2="990" y2="420" stroke="#333" stroke-width="1.5"/>
  
  <!-- Despachador -->
  <line x1="1220" y1="580" x2="690" y2="550" stroke="#333" stroke-width="1.5"/>
  <line x1="1220" y1="590" x2="690" y2="620" stroke="#333" stroke-width="1.5"/>
  <line x1="1220" y1="600" x2="690" y2="690" stroke="#333" stroke-width="1.5"/>
  <line x1="1220" y1="590" x2="940" y2="550" stroke="#333" stroke-width="1.5"/>
  <line x1="1220" y1="600" x2="940" y2="620" stroke="#333" stroke-width="1.5"/>
  
  <!-- Oficial Inspección -->
  <line x1="1220" y1="830" x2="690" y2="800" stroke="#333" stroke-width="1.5"/>
  <line x1="1220" y1="840" x2="690" y2="870" stroke="#333" stroke-width="1.5"/>
  <line x1="1220" y1="840" x2="940" y2="800" stroke="#333" stroke-width="1.5"/>
  <line x1="1220" y1="850" x2="940" y2="870" stroke="#333" stroke-width="1.5"/>
  
  <!-- Relaciones include -->
  <line x1="540" y1="360" x2="540" y2="410" stroke="#666" stroke-width="1" stroke-dasharray="3,3"/>
  <text x="570" y="390" font-size="9" fill="#666">include</text>
  
  <line x1="690" y1="620" x2="760" y2="550" stroke="#666" stroke-width="1" stroke-dasharray="3,3"/>
  <text x="730" y="580" font-size="9" fill="#666">include</text>
  
  <line x1="690" y1="870" x2="760" y2="800" stroke="#666" stroke-width="1" stroke-dasharray="3,3"/>
  <text x="730" y="830" font-size="9" fill="#666">include</text>
  
</svg>